<?xml version="1.0" encoding="UTF-8" standalone="no"?>
<svg
   xmlns:dc="http://purl.org/dc/elements/1.1/"
   xmlns:cc="http://creativecommons.org/ns#"
   xmlns:rdf="http://www.w3.org/1999/02/22-rdf-syntax-ns#"
   xmlns:svg="http://www.w3.org/2000/svg"
   xmlns="http://www.w3.org/2000/svg"
   xmlns:sodipodi="http://sodipodi.sourceforge.net/DTD/sodipodi-0.dtd"
   xmlns:inkscape="http://www.inkscape.org/namespaces/inkscape"
   height="108"
   viewBox="0 0 54 54"
   width="108"
   id="svg4186"
   version="1.1"
   inkscape:version="0.91 r13725"
   sodipodi:docname="passkey_adaptive.svg"
   style="fill:#000000"
   inkscape:export-filename="/home/remrot/Desktop/passkey_bg_192px.png"
   inkscape:export-xdpi="160"
   inkscape:export-ydpi="160">
  <metadata
     id="metadata4196">
    <rdf:RDF>
      <cc:Work
         rdf:about="">
        <dc:format>image/svg+xml</dc:format>
        <dc:type
           rdf:resource="http://purl.org/dc/dcmitype/StillImage" />
        <dc:title />
      </cc:Work>
    </rdf:RDF>
  </metadata>
  <defs
     id="defs4194">
    <marker
       inkscape:stockid="Arrow1Lstart"
       orient="auto"
       refY="0.0"
       refX="0.0"
       id="marker4455"
       style="overflow:visible"
       inkscape:isstock="true">
      <path
         id="path4457"
         d="M 0.0,0.0 L 5.0,-5.0 L -12.5,0.0 L 5.0,5.0 L 0.0,0.0 z "
         style="fill-rule:evenodd;stroke:#000000;stroke-width:1.0pt"
         transform="scale(0.8) translate(12.5,0)" />
    </marker>
    <marker
       inkscape:stockid="Arrow1Lstart"
       orient="auto"
       refY="0.0"
       refX="0.0"
       id="marker4433"
       style="overflow:visible"
       inkscape:isstock="true">
      <path
         id="path4435"
         d="M 0.0,0.0 L 5.0,-5.0 L -12.5,0.0 L 5.0,5.0 L 0.0,0.0 z "
         style="fill-rule:evenodd;stroke:#000000;stroke-width:1.0pt"
         transform="scale(0.8) translate(12.5,0)" />
    </marker>
    <marker
       inkscape:stockid="Arrow1Lstart"
       orient="auto"
       refY="0.0"
       refX="0.0"
       id="marker4417"
       style="overflow:visible"
       inkscape:isstock="true">
      <path
         id="path4419"
         d="M 0.0,0.0 L 5.0,-5.0 L -12.5,0.0 L 5.0,5.0 L 0.0,0.0 z "
         style="fill-rule:evenodd;stroke:#000000;stroke-width:1.0pt"
         transform="scale(0.8) translate(12.5,0)" />
    </marker>
    <marker
       inkscape:stockid="Arrow1Lstart"
       orient="auto"
       refY="0.0"
       refX="0.0"
       id="Arrow1Lstart"
       style="overflow:visible"
       inkscape:isstock="true">
      <path
         id="path4153"
         d="M 0.0,0.0 L 5.0,-5.0 L -12.5,0.0 L 5.0,5.0 L 0.0,0.0 z "
         style="fill-rule:evenodd;stroke:#000000;stroke-width:1.0pt"
         transform="scale(0.8) translate(12.5,0)" />
    </marker>
  </defs>
  <sodipodi:namedview
     pagecolor="#ffffff"
     bordercolor="#666666"
     borderopacity="1"
     objecttolerance="10"
     gridtolerance="10"
     guidetolerance="10"
     inkscape:pageopacity="0"
     inkscape:pageshadow="2"
     inkscape:window-width="1861"
     inkscape:window-height="1056"
     id="namedview4192"
     showgrid="false"
     inkscape:zoom="8.4500003"
     inkscape:cx="42.089497"
     inkscape:cy="62.383205"
     inkscape:window-x="59"
     inkscape:window-y="24"
     inkscape:window-maximized="1"
     inkscape:current-layer="layer3"
     inkscape:showpageshadow="false">
    <inkscape:grid
       type="xygrid"
       id="grid4394" />
  </sodipodi:namedview>
  <path
     d="m 0,1.4491379e-6 53.999999,0 L 53.999999,54 0,54 Z"
     id="path4188"
     inkscape:connector-curvature="0"
     style="fill:none" />
  <g
     inkscape:groupmode="layer"
     id="layer3"
     inkscape:label="Background"
     style="display:inline"
     sodipodi:insensitive="true">
    <rect
       style="fill:#004ba0;fill-opacity:1;stroke:none;stroke-width:0.25;stroke-linejoin:round;stroke-miterlimit:4;stroke-dasharray:none;stroke-opacity:1"
       id="rect4145"
       width="54"
       height="54"
       x="0"
       y="0" />
    <path
       id="path4197"
       d="m 14.882503,22.224255 2.50617,0 0,-1.316556 -2.50617,0 z m 0,-5.676657 0,1.316799 7.518508,0 0,-1.316799 z m 0,3.496729 5.012337,0 0,-1.316678 -5.012337,0 z"
       inkscape:connector-curvature="0"
       style="display:inline;fill:#ffffff;fill-opacity:0.94117647"
       sodipodi:nodetypes="ccccccccccccccc" />
  </g>
  <g
     inkscape:groupmode="layer"
     id="layer1"
     inkscape:label="Safe Zone Circle"
     style="display:inline"
     sodipodi:insensitive="true">
    <circle
       style="fill:none;fill-opacity:0.94117647;stroke:#000000;stroke-width:0.184;stroke-linejoin:round;stroke-miterlimit:4;stroke-dasharray:none;stroke-opacity:1"
       id="path4141"
       cx="27"
       cy="27"
       r="16.408031" />
  </g>
  <g
     inkscape:groupmode="layer"
     id="layer4"
     inkscape:label="Safe Zone Square"
     style="display:inline"
     sodipodi:insensitive="true">
    <rect
       style="opacity:0.85;fill:none;fill-opacity:1;fill-rule:nonzero;stroke:#000000;stroke-width:0.24827588;stroke-linecap:round;stroke-linejoin:round;stroke-miterlimit:4;stroke-dasharray:none;stroke-opacity:1"
       id="rect4147"
       width="35.751724"
       height="35.751724"
       x="9.1241379"
       y="9.1241379" />
  </g>
  <g
     inkscape:groupmode="layer"
     id="layer2"
     inkscape:label="Icon"
     style="display:inline"
     sodipodi:insensitive="true">
    <g
       id="g4181"
       transform="matrix(1.0816718,0,0,1.0816718,-4.310949,-3.8325983)">
      <path
         style="fill:#63a4ff;fill-opacity:1;stroke:none;stroke-opacity:1"
         inkscape:connector-curvature="0"
         id="path4190"
         d="m 31.302668,33.404292 c 1.14541,0 2.082562,-0.931864 2.082562,-2.07081 0,-1.138944 -0.937152,-2.070808 -2.082562,-2.070808 -1.145406,0 -2.082558,0.931864 -2.082558,2.070808 0,1.138946 0.937152,2.07081 2.082558,2.07081 z m 6.247679,-9.318652 -1.04128,0 0,-2.070805 c 0,-2.85772 -2.332468,-5.177027 -5.206399,-5.177027 -2.873929,0 -5.206395,2.319307 -5.206395,5.177027 l 1.978432,0 c 0,-1.770545 1.447376,-3.209759 3.227963,-3.209759 1.780591,0 3.227968,1.439214 3.227968,3.209759 l 0,2.070805 -9.475641,0 c -1.14541,0 -2.082561,0.931868 -2.082561,2.070817 l 0,10.35405 c 0,1.138948 0.937151,2.070813 2.082561,2.070813 l 12.495352,0 c 1.145406,0 2.08256,-0.931865 2.08256,-2.070813 l 0,-10.35405 c 0,-1.138949 -0.937154,-2.070817 -2.08256,-2.070817 z m 0,12.424867 -12.495352,0 0,-10.35405 12.495352,0 0,10.35405 z" />
      <g
         transform="matrix(0.54463537,0,0,0.54156279,16.942892,25.469979)"
         id="g4390"
         style="fill:#000000">
        <path
           style="fill:none"
           inkscape:connector-curvature="0"
           d="M 0,0 24,0 24,24 0,24 Z"
           id="path4380" />
        <path
           style="fill:#ffffff;fill-opacity:0.94117647"
           inkscape:connector-curvature="0"
           d="m 10.833634,6.6134427 c -0.82,-2.33 -3.0399998,-4 -5.6499998,-4 -3.31,0 -6.00000003,2.69 -6.00000003,6 0,3.3100003 2.69000003,6.0000003 6.00000003,6.0000003 2.61,0 4.8299998,-1.67 5.6499998,-4 l 4.35,0 0,4 4,0 0,-4 2,0 0,-4.0000003 -10.35,0 z M 5.1836342,10.613443 c -1.1,0 -2,-0.9000005 -2,-2.0000003 0,-1.1 0.9,-2 2,-2 1.1,0 2,0.9 2,2 0,1.0999998 -0.9,2.0000003 -2,2.0000003 z"
           id="path4382" />
      </g>
    </g>
    <g
       style="fill:#000000"
       id="g4207"
       transform="matrix(0.42450456,0,0,0.42450456,7.0597945,6.27694)">
      <path
         id="path4199"
         d="M 0,0 24,0 24,24 0,24 Z"
         inkscape:connector-curvature="0"
         style="fill:none" />
    </g>
  </g>
</svg>
